{"title":"Catfish The TV Show S04E06 HDTV x264-STC","uid":11792609,"size":639574361,"categoryP":"video","categoryS":"tv_shows","magnet":"?xt=urn:btih:2a2c1bac47ed276a30cf54a72f8b9758d9e336d0&amp;dn=Catfish+The+TV+Show+S04E06+HDTV+x264-STC&amp;tr=udp%3A%2F%2Ftracker.openbittorrent.com%3A80&amp;tr=udp%3A%2F%2Fopen.demonii.com%3A1337&amp;tr=udp%3A%2F%2Ftracker.coppersurfer.tk%3A6969&amp;tr=udp%3A%2F%2Fexodus.desync.com%3A6969","seeders":25,"leechers":0,"uploader":"TvTeam","files":4,"time":1428010858,"description":" &lt;a href=&quot;https://www.torrenting.com&quot; rel=&quot;nofollow&quot; target=&quot;_NEW&quot;&gt;https://www.torrenting.com&lt;/a&gt;\n\nSign up is OPEN - for time being. Come and have fun.\n------------------------------------------------------------------------\n ^_^General\nComplete name               : Catfish The TV Show S04E06 HDTV x264-STC.mp4\nFormat                      : MPEG-4\nFormat profile              : Base Media\nCodec ID                    : isom\nFile size                   : 603 MiB\nDuration                    : 46mn 9s\nOverall bit rate            : 1 826 Kbps\n\n\n\nVideo\nID                          : 1\nFormat                      : AVC\nFormat/Info                 : Advanced Video Codec\nFormat profile              : &lt;a class=&quot;__cf_email__&quot; href=&quot;/cdn-cgi/l/email-protection&quot; data-cfemail=&quot;6e260709062e225d405e&quot;&gt;[email&amp;#160;protected]&lt;/a&gt;&lt;script cf-hash='f9e31' type=&quot;text/javascript&quot;&gt;\n/* &lt;![CDATA[ */!function(){try{var t=&quot;currentScript&quot;in document?document.currentScript:function(){for(var t=document.getElementsByTagName(&quot;script&quot;),e=t.length;e--;)if(t[e].getAttribute(&quot;cf-hash&quot;))return t[e]}();if(t&amp;&amp;t.previousSibling){var e,r,n,i,c=t.previousSibling,a=c.getAttribute(&quot;data-cfemail&quot;);if(a){for(e=&quot;&quot;,r=parseInt(a.substr(0,2),16),n=2;a.length-n;n+=2)i=parseInt(a.substr(n,2),16)^r,e+=String.fromCharCode(i);e=document.createTextNode(e),c.parentNode.replaceChild(e,c)}}}catch(u){}}();/* ]]&gt; */&lt;/script&gt;\nFormat settings, CABAC      : No\nFormat settings, ReFrames   : 1 frame\nCodec ID                    : avc1\nCodec ID/Info               : Advanced Video Coding\nDuration                    : 46mn 9s\nBit rate                    : 1 600 Kbps\nWidth                       : 856 pixels\nHeight                      : 480 pixels\nDisplay aspect ratio        : 16:9\nFrame rate mode             : Constant\nFrame rate                  : 24.000 fps\nColor space                 : YUV\nChroma subsampling          : 4:2:0\nBit depth                   : 8 bits\nScan type                   : Progressive\nBits/(Pixel*Frame)          : 0.162\nStream size                 : 531 MiB (88%)\nWriting library             : x264 core 116 r2019 9cc407d\n\nAudio\nID                          : 2\nFormat                      : AAC\nFormat/Info                 : Advanced Audio Codec\nFormat profile              : LC\nCodec ID                    : 40\nDuration                    : 46mn 9s\nBit rate mode               : Variable\nBit rate                    : 215 Kbps\nChannel(s)                  : 2 channels\nChannel positions           : Front: L R\nSampling rate               : 44.1 KHz\nCompression mode            : Lossy\nStream size                 : 71.0 MiB (12%)","torrent":{"xt":"urn:btih:2a2c1bac47ed276a30cf54a72f8b9758d9e336d0","amp;dn":"Catfish+The+TV+Show+S04E06+HDTV+x264-STC","amp;tr":["udp%3A%2F%2Ftracker.openbittorrent.com%3A80","udp%3A%2F%2Fopen.demonii.com%3A1337","udp%3A%2F%2Ftracker.coppersurfer.tk%3A6969","udp%3A%2F%2Fexodus.desync.com%3A6969"],"infoHash":"2a2c1bac47ed276a30cf54a72f8b9758d9e336d0","infoHashBuffer":{"type":"Buffer","data":[42,44,27,172,71,237,39,106,48,207,84,167,47,139,151,88,217,227,54,208]},"announce":[],"urlList":[]}}